<svg xmlns="http://www.w3.org/2000/svg" viewBox="0 0 500 500"><g id="freepik--Plants--inject-140"><path d="M217.09,427.21a2.61,2.61,0,0,1,.55.41l1.53,1.26c.67.55,1.47,1.23,2.36,2.08s1.95,1.75,3,2.87,2.28,2.29,3.48,3.65,2.47,2.83,3.77,4.4a101.18,101.18,0,0,1,13.81,22.6c.8,1.88,1.59,3.65,2.2,5.36s1.19,3.3,1.66,4.77.85,2.81,1.18,4,.59,2.2.77,3,.32,1.45.43,1.94a3.14,3.14,0,0,1,.11.68,3.8,3.8,0,0,1-.21-.66c-.14-.48-.31-1.12-.52-1.91s-.48-1.85-.86-3-.72-2.51-1.25-4-1-3.05-1.72-4.72-1.42-3.46-2.22-5.32A117.39,117.39,0,0,0,239,453a116.3,116.3,0,0,0-7.57-10.82c-1.29-1.57-2.49-3.08-3.72-4.41s-2.35-2.58-3.42-3.68-2.07-2.07-2.95-2.92S219.68,429.6,219,429l-1.47-1.33A2.94,2.94,0,0,1,217.09,427.21Z" style="fill:#263238"></path><path d="M222.19,462.86a9.58,9.58,0,0,1,1.45.33c.46.12,1,.28,1.66.5s1.39.43,2.18.76A50.19,50.19,0,0,1,233,466.9a55.84,55.84,0,0,1,6.27,3.86,57.15,57.15,0,0,1,5.66,4.7,51,51,0,0,1,4.07,4.41c.56.65,1,1.28,1.42,1.82s.74,1,1,1.42a8.26,8.26,0,0,1,.78,1.27,7.54,7.54,0,0,1-.94-1.15c-.29-.38-.64-.84-1.07-1.36s-.89-1.13-1.47-1.76a58.14,58.14,0,0,0-4.12-4.3,56.54,56.54,0,0,0-11.82-8.49c-2-1-3.82-1.9-5.39-2.53-.78-.34-1.51-.59-2.14-.83s-1.18-.43-1.63-.58A7.18,7.18,0,0,1,222.19,462.86Z" style="fill:#263238"></path><path d="M281,435.22a2.38,2.38,0,0,1-.27.46c-.24.33-.52.75-.87,1.25s-.86,1.2-1.36,2-1.13,1.66-1.73,2.68c-1.27,2-2.65,4.43-4.07,7.21a95.06,95.06,0,0,0-4,9.29,96.64,96.64,0,0,0-3,9.69c-.73,3-1.26,5.8-1.59,8.13-.21,1.16-.3,2.23-.42,3.16s-.2,1.73-.26,2.39l-.15,1.51a1.9,1.9,0,0,1-.09.53,2.67,2.67,0,0,1,0-.53c0-.41,0-.91,0-1.53s.07-1.47.17-2.4.16-2,.34-3.18c.29-2.35.79-5.13,1.49-8.19a92.33,92.33,0,0,1,2.94-9.76,90.15,90.15,0,0,1,4.1-9.33,80.13,80.13,0,0,1,4.19-7.19c.62-1,1.26-1.87,1.8-2.64s1-1.42,1.43-1.94l.95-1.19A2.37,2.37,0,0,1,281,435.22Z" style="fill:#263238"></path><path d="M189.65,436a9.39,9.39,0,0,1,6.37,3.62,16.46,16.46,0,0,1,3,6.83c1.05,4.74,0,10.23-1.5,14.84-5-2-7.89-7.58-9.18-10.49-2-4.59-2.94-14.13,1.29-14.8" style="fill:#FF725E"></path><path d="M204.59,467.24a8,8,0,0,1,0-8,10.58,10.58,0,0,1,6.59-4.85,4.49,4.49,0,0,1,3.75.35,3.4,3.4,0,0,1,1.17,3.25,7,7,0,0,1-1.6,3.22c-2.62,3.23-5.74,5.88-9.89,6" style="fill:#FF725E"></path><path d="M204.46,482.93a7.27,7.27,0,0,1-.18-1c-.11-.7-.24-1.6-.41-2.69a28.26,28.26,0,0,1-.16-9,17.26,17.26,0,0,1,3.69-8.17,11.67,11.67,0,0,1,2-1.86c.26-.2.48-.31.62-.41s.23-.12.24-.11a17.18,17.18,0,0,0-2.68,2.54,17.64,17.64,0,0,0-3.53,8.07,30,30,0,0,0,.06,8.91c.13,1.14.24,2.06.3,2.71A4.74,4.74,0,0,1,204.46,482.93Z" style="fill:#263238"></path><path d="M191,443.16s.08.13.19.39.28.68.48,1.15c.4,1,1,2.47,1.66,4.27,1.37,3.62,3.2,8.64,5.09,14.23s3.49,10.7,4.6,14.41c.55,1.85,1,3.35,1.27,4.4l.32,1.2c.08.28.11.42.09.43a2.77,2.77,0,0,1-.15-.41l-.39-1.18-1.38-4.37c-1.17-3.69-2.8-8.77-4.69-14.36s-3.68-10.62-5-14.26c-.64-1.79-1.17-3.25-1.55-4.31-.17-.48-.31-.87-.41-1.17A3.12,3.12,0,0,1,191,443.16Z" style="fill:#263238"></path><path d="M198.89,472.3a18.65,18.65,0,0,0-14.07-9.62c-1.5-.18-3.31,0-4,1.32s.1,2.95,1.07,4.1a16,16,0,0,0,17.08,4.61" style="fill:#FF725E"></path><path d="M186.92,466.79a5.82,5.82,0,0,1,.94.08A9.88,9.88,0,0,1,189,467c.42.1.91.17,1.43.34a14.33,14.33,0,0,1,1.69.55c.6.21,1.22.5,1.87.8a20.93,20.93,0,0,1,3.91,2.56,20.16,20.16,0,0,1,3.18,3.43,17,17,0,0,1,1.1,1.72,15.79,15.79,0,0,1,.8,1.59c.24.48.38,1,.54,1.36a9,9,0,0,1,.32,1.05,5.12,5.12,0,0,1,.21.92c-.08,0-.38-1.29-1.3-3.23a15.85,15.85,0,0,0-.83-1.54,17.78,17.78,0,0,0-1.1-1.68,21.18,21.18,0,0,0-3.14-3.35A22.07,22.07,0,0,0,193.8,469c-.64-.31-1.24-.6-1.84-.82a16.51,16.51,0,0,0-1.65-.58C188.25,467,186.91,466.87,186.92,466.79Z" style="fill:#263238"></path></g><g id="freepik--Character--inject-140"><path d="M237.46,120.39a7.41,7.41,0,0,1,3.81-3.52c1.6-.77,3.32-1.28,4.86-2.17a11.28,11.28,0,0,0,4.16-15.38l5.92-.52c2.08,4.76-2.43,10.47-.49,15.28.7,1.73,2.14,3,3.07,4.66s1.24,3.93-.19,5.14" style="fill:#455a64"></path><path d="M259.9,105.13a5.46,5.46,0,0,1,7.22-3.59,16.79,16.79,0,0,0,3.1,1.32c1.72.3,3.36-.78,4.78-1.81a6,6,0,0,1-1.09,5.38,9.83,9.83,0,0,1-12.67,1.86,4.12,4.12,0,0,1-1.34-3.16" style="fill:#455a64"></path><path d="M265.1,105.57a15.48,15.48,0,0,0-9.78.73,9.78,9.78,0,0,1,9.78-.73Z" style="fill:#263238"></path><path d="M224,121.21c-6.25-1.8-13.18.87-17.76,5.49s-7.12,10.89-8.7,17.2a51.12,51.12,0,0,0-1.24,21.23,32,32,0,0,0,9.87,18.57c7.33,6.47,17.54,8.41,27.26,9.42a208.81,208.81,0,0,0,26.58,1,76.58,76.58,0,0,0,18.55-2.25,34.31,34.31,0,0,0,16.08-9.14,31.79,31.79,0,0,0,7.87-17.22,49.92,49.92,0,0,0-1.33-19.07,50.92,50.92,0,0,0-9.5-20,17.3,17.3,0,0,0-6.27-5.24,8.32,8.32,0,0,0-7.89.36,16.9,16.9,0,0,0-19.08-3.23,14.71,14.71,0,0,0-18.7,2.41c-4-4.16-12.72-3.77-15.74.44" style="fill:#FF725E"></path><path d="M239.58,193.67a4.08,4.08,0,0,1-.27-.71l-.68-2.05c-.31-.89-.61-2-.95-3.29-.17-.65-.35-1.34-.55-2.07l-.51-2.34c-.76-3.27-1.38-7.23-2-11.63s-.85-9.29-.94-14.42a136,136,0,0,1,.65-14.43,93,93,0,0,1,1.95-11.64c.19-.82.38-1.59.56-2.33s.42-1.41.62-2a33.9,33.9,0,0,1,1.08-3.24l.8-2a3.92,3.92,0,0,1,.31-.68,4.47,4.47,0,0,1-.21.72l-.7,2c-.34.88-.65,2-1,3.26-.18.64-.38,1.33-.58,2s-.34,1.52-.52,2.33a100.83,100.83,0,0,0-1.84,11.61,141.18,141.18,0,0,0-.59,14.38c.08,5.11.42,10,.89,14.37s1.13,8.33,1.84,11.61l.48,2.34.51,2.07c.31,1.29.58,2.41.85,3.3s.44,1.56.59,2.08A6.88,6.88,0,0,1,239.58,193.67Z" style="fill:#263238"></path><path d="M257.56,190.54a4.12,4.12,0,0,1,.16-.73c.15-.52.34-1.2.57-2.06s.56-2,.87-3.26.71-2.73,1-4.35c.17-.81.36-1.66.55-2.55s.33-1.81.51-2.77c.38-1.91.65-4,1-6.14a142.32,142.32,0,0,0,1.11-14.2,128.39,128.39,0,0,0-.55-14.23c-.26-2.17-.45-4.24-.8-6.16-.15-1-.28-1.9-.45-2.78s-.35-1.74-.52-2.55c-.29-1.63-.69-3.08-1-4.36-.16-.63-.31-1.23-.44-1.78s-.31-1-.44-1.48c-.24-.85-.44-1.53-.59-2a7.14,7.14,0,0,1-.17-.73,3.39,3.39,0,0,1,.27.69c.18.52.4,1.19.68,2l.48,1.47.49,1.78c.34,1.27.76,2.72,1.08,4.35.18.81.36,1.67.56,2.55s.31,1.83.48,2.79c.36,1.92.58,4,.85,6.18a124.37,124.37,0,0,1,.59,14.29,134.53,134.53,0,0,1-1.16,14.26c-.33,2.17-.62,4.24-1,6.15-.19,1-.35,1.89-.55,2.78s-.4,1.73-.59,2.54c-.35,1.62-.77,3.07-1.11,4.34s-.66,2.37-1,3.25-.49,1.52-.66,2A3.1,3.1,0,0,1,257.56,190.54Z" style="fill:#263238"></path><path d="M279.93,187.63a3.06,3.06,0,0,1,.25-.66l.82-1.84q.28-.6.6-1.32c.22-.49.41-1,.64-1.61.43-1.16,1-2.46,1.43-4l.75-2.33c.26-.81.44-1.68.67-2.56.5-1.77.83-3.7,1.21-5.73a74.25,74.25,0,0,0,.89-13.35A72.82,72.82,0,0,0,285.43,141c-.53-2-1-3.9-1.62-5.62-.3-.86-.54-1.72-.86-2.51l-.93-2.26c-.55-1.46-1.24-2.7-1.76-3.82-.28-.56-.51-1.08-.77-1.55l-.72-1.26-1-1.75a3.09,3.09,0,0,1-.31-.64,4.24,4.24,0,0,1,.4.58c.28.43.63,1,1.07,1.71l.77,1.24c.27.46.52,1,.81,1.54.55,1.11,1.27,2.34,1.84,3.8l1,2.27c.34.79.59,1.64.9,2.51.66,1.73,1.13,3.65,1.68,5.65a71,71,0,0,1,1.81,13.36,72.41,72.41,0,0,1-.94,13.45c-.39,2-.74,4-1.26,5.75-.25.89-.43,1.77-.71,2.58l-.78,2.33c-.45,1.5-1.06,2.79-1.51,3.95-.25.57-.45,1.12-.68,1.6s-.45.91-.64,1.31c-.38.74-.68,1.34-.91,1.8S279.94,187.63,279.93,187.63Z" style="fill:#263238"></path><path d="M222.34,189.91a2.88,2.88,0,0,1-.4-.62l-1.08-1.81-.76-1.33-.78-1.64a39.44,39.44,0,0,1-1.75-4.06c-.29-.77-.59-1.58-.91-2.41s-.52-1.76-.8-2.68c-.6-1.84-1-3.87-1.44-6a75.62,75.62,0,0,1-1.16-14.06,74.66,74.66,0,0,1,1.72-14c.58-2.1,1-4.12,1.72-5.93.32-.91.62-1.79.92-2.63l1-2.36a36.72,36.72,0,0,1,2-4l.87-1.6.84-1.27,1.18-1.75a3.09,3.09,0,0,1,.44-.59,4.87,4.87,0,0,1-.36.65l-1.09,1.8-.8,1.29c-.25.5-.53,1-.82,1.61a36.31,36.31,0,0,0-1.89,4l-1,2.36c-.29.85-.59,1.72-.89,2.63-.68,1.8-1.09,3.81-1.66,5.89a76.58,76.58,0,0,0-1.67,13.91,78.31,78.31,0,0,0,1.11,14c.46,2.11.81,4.13,1.39,6,.27.92.5,1.82.76,2.67s.6,1.64.87,2.41a41.37,41.37,0,0,0,1.68,4.07l.73,1.65.72,1.34,1,1.86A4.3,4.3,0,0,1,222.34,189.91Z" style="fill:#263238"></path><path d="M222.34,138.35c1.07,3.27,2.45,7.5,4.64,10.16a14.27,14.27,0,0,0,8.63,5.25,9.71,9.71,0,0,0,9.19-3.48A73.58,73.58,0,0,0,222.34,138.35Z" style="fill:#FF725E"></path><g style="opacity:0.30000000000000004"><path d="M222.34,138.35c1.07,3.27,2.45,7.5,4.64,10.16a14.27,14.27,0,0,0,8.63,5.25,9.71,9.71,0,0,0,9.19-3.48A73.58,73.58,0,0,0,222.34,138.35Z"></path></g><path d="M228.63,146.86a14.3,14.3,0,0,0,8.63,5.25,10.2,10.2,0,0,0,7.53-1.81v0a73.42,73.42,0,0,0-20-11.07A25.71,25.71,0,0,0,228.63,146.86Z" style="fill:#263238"></path><path d="M277.61,138.8a1.9,1.9,0,0,0-1.35-1.16c-4.07-1.47-8.58.65-11.94,3.39s-6.23,6.18-10.13,8.06a23.07,23.07,0,0,0,5.38,4.32,9,9,0,0,0,6.93,1c3.24-1,5.19-4.23,6.84-7.19l3.87-6.95A2.15,2.15,0,0,0,277.61,138.8Z" style="fill:#FF725E"></path><g style="opacity:0.30000000000000004"><path d="M277.61,138.8a1.9,1.9,0,0,0-1.35-1.16c-4.07-1.47-8.58.65-11.94,3.39s-6.23,6.18-10.13,8.06a23.07,23.07,0,0,0,5.38,4.32,9,9,0,0,0,6.93,1c3.24-1,5.19-4.23,6.84-7.19l3.87-6.95A2.15,2.15,0,0,0,277.61,138.8Z"></path></g><path d="M266.5,152c3.24-1,5.19-4.23,6.84-7.19l3.75-6.73a2.85,2.85,0,0,0-.83-.43c-4.07-1.47-8.58.65-11.94,3.39-2.87,2.35-5.4,5.21-8.52,7.16a19.89,19.89,0,0,0,3.77,2.76A8.93,8.93,0,0,0,266.5,152Z" style="fill:#263238"></path><path d="M285.68,136.17c-6.48-7.28-.79-.16-.79-.16s3.95,6.64.47,10.75l-.78.94c-.75,0-2.63.3-3,2.07-.48,2.21-1.43,11.39-2.53,10a19.32,19.32,0,0,0-2.69-2.69s-2.06,11.23-3.64,10.76-6.79-6.49-6.79-6.49-4,14.56-5.71,12.5-6-10.91-6-10.91-1.08,11.07-3.62,7.91a25.22,25.22,0,0,1-3.8-7.44s-3.48,10.76-4.9,7.44a46,46,0,0,1-2.06-5.7s-4.27,8.23-4.43,4.43a69.29,69.29,0,0,0-.69-7.12s-2.63,5.67-4.37,4.26-1.11-10.43-1.11-10.43-3.91,6.8-5.75,4.59-.89-9.65-.89-9.65-2.21,2.06-4.11,1.11-3.48-14.39-1.74-20.72c0,0-9.81,27,0,36.69h1.42s1.78,10.76,5.32,7.28c0,0,4,7.75,5,6.8a11.55,11.55,0,0,0,1.74-3.64s5.56,7.08,9.52,4.31c0,0,3.45-7.47,4.88-5.57s3.32,8.06,3.32,8.06,2.84-6.18,4.64-6.08,5,6.08,5,6.08,6.64-13.76,7.43-10.91a29.52,29.52,0,0,1,1,5.06s5.21-8.54,6.47-6.32a20.22,20.22,0,0,0,3.33,4.11s3.63-.95,5.37-7.28,1.27-15.48,2.85-15.41a10.43,10.43,0,0,1,2.53.38S292.17,143.44,285.68,136.17Z" style="fill:#FF725E"></path><path d="M285.38,146.76l-.79.94c-.75,0-2.63.3-3,2.07-.47,2.21-1.42,11.39-2.53,10a19.32,19.32,0,0,0-2.69-2.69s-2.05,11.23-3.63,10.76-6.8-6.49-6.8-6.49-4,14.56-5.7,12.5-6-10.91-6-10.91-1.09,11.07-3.62,7.91a25,25,0,0,1-3.8-7.44s-3.48,10.76-4.91,7.44a46.81,46.81,0,0,1-2-5.7s-4.27,8.23-4.43,4.43a67.6,67.6,0,0,0-.7-7.12s-2.62,5.67-4.36,4.26-1.11-10.43-1.11-10.43-3.92,6.8-5.76,4.59-.88-9.65-.88-9.65-2.22,2.06-4.12,1.11-3.92-11.84-2.48-18.46c.23.18-9,24.88.74,34.43h1.43s1.78,10.76,5.31,7.28c0,0,4,7.75,5,6.8a11.55,11.55,0,0,0,1.74-3.64s5.56,7.08,9.51,4.31c0,0,3.46-7.47,4.88-5.57s3.32,8.06,3.32,8.06,2.84-6.18,4.64-6.08,5,6.08,5,6.08,6.64-13.76,7.43-10.91a28.38,28.38,0,0,1,1,5.06s5.21-8.54,6.48-6.32a20,20,0,0,0,3.32,4.11s3.64-.95,5.38-7.28,1.26-15.48,2.85-15.41a10.43,10.43,0,0,1,2.53.38,30.25,30.25,0,0,0,2.18-5.75,26.36,26.36,0,0,0-.08-7c-.27-1.45-1.61,2.78-1.61,2.78l-1.6,1.57" style="opacity:0.30000000000000004"></path><path d="M212.42,152.22c.26,4.64,1.46,8.9,4.3,11.7h1.42s1.78,10.75,5.32,7.27c0,0,4,7.75,5,6.81a11.55,11.55,0,0,0,1.74-3.64s5.56,7.08,9.52,4.31c0,0,3.45-7.48,4.88-5.58s3.32,8.07,3.32,8.07,2.84-6.18,4.64-6.09,5,6.09,5,6.09,6.64-13.76,7.43-10.92a29.53,29.53,0,0,1,1,5.07s5.21-8.54,6.47-6.33a20.22,20.22,0,0,0,3.33,4.11s3.63-1,5.37-7.27,1.27-15.48,2.85-15.42a10.43,10.43,0,0,1,2.53.38,26.61,26.61,0,0,0,2.18-7.84,12.73,12.73,0,0,0-1.87-5.33,8.56,8.56,0,0,1,0,1.43,12.36,12.36,0,0,0,0,2.58,6.7,6.7,0,0,1-1.39,5.14l-.78.94c-.75,0-2.63.3-3,2.07-.48,2.21-1.43,11.39-2.53,10a19.32,19.32,0,0,0-2.69-2.69s-2.06,11.23-3.64,10.76-6.79-6.49-6.79-6.49-4,14.56-5.71,12.5-6-10.91-6-10.91-1.08,11.07-3.62,7.91a25.22,25.22,0,0,1-3.8-7.44s-3.48,10.76-4.9,7.44a46,46,0,0,1-2.06-5.7s-4.27,8.23-4.43,4.43a69.29,69.29,0,0,0-.69-7.12s-2.63,5.67-4.37,4.26c-1.33-1.08-1.27-6.64-1.17-9.17,0-.36,0-.72,0-1.08-.62,1-4,6.41-5.65,4.41-1.27-1.53-1.21-5.55-1.05-7.89,0-.51-.07-1-.08-1.56-.62.5-2.35,1.67-3.87.91s-2.76-9-2.44-15.66c0-.94-.06-1.88-.05-2.8A79.16,79.16,0,0,0,212.42,152.22Z" style="fill:#263238"></path><path d="M210.33,126.68a7.31,7.31,0,0,0-4.21,3.65,21.66,21.66,0,0,0-1.84,5.4c-.67,2.72-1.33,5.44-2,8.17-.1.42-.13,1,.29,1.14s.73-.31.92-.69A161.69,161.69,0,0,0,211.55,125l-2.1,1.88" style="fill:#263238"></path><path d="M254.3,100.08s-.13.22-.52.31a1.51,1.51,0,0,1-1.53-.61l-.15-.21.26-.09a5.42,5.42,0,0,1,1.84-.26,7,7,0,0,1,1.08.15,3.79,3.79,0,0,1,.57.19.55.55,0,0,1,.31.39.61.61,0,0,1-.15.47,1.39,1.39,0,0,1-.64.39,4.69,4.69,0,0,1-.61.18,4.49,4.49,0,0,1-1.2.08,4.58,4.58,0,0,1-1.92-.54c-1-.55-1.37-1.22-1.32-1.24a11.05,11.05,0,0,0,1.48.91,4.82,4.82,0,0,0,1.78.39,4.36,4.36,0,0,0,1.07-.1,2.3,2.3,0,0,0,1-.4s0-.06,0,0,0,0,0,0a3.11,3.11,0,0,0-.46-.15,4.9,4.9,0,0,0-1-.16,5.71,5.71,0,0,0-1.71.15l.11-.29a1.35,1.35,0,0,0,1.17.6C254.09,100.15,254.27,100,254.3,100.08Z" style="fill:#263238"></path><path d="M319,157.64a5.82,5.82,0,0,1-1.11.59c-.73.34-1.79.85-3.07,1.5a77.47,77.47,0,0,0-18.36,12.94c-1.05,1-1.88,1.81-2.45,2.39a5.94,5.94,0,0,1-.92.85,6.11,6.11,0,0,1,.77-1c.53-.62,1.32-1.48,2.35-2.51a65.22,65.22,0,0,1,8.66-7.3,66.71,66.71,0,0,1,9.79-5.71c1.31-.61,2.39-1.07,3.15-1.36A6.26,6.26,0,0,1,319,157.64Z" style="fill:#455a64"></path><path d="M317.61,165.38c.05.13-5.28,2.5-11.91,5.28s-12.05,4.94-12.1,4.81,5.27-2.5,11.9-5.29S317.55,165.24,317.61,165.38Z" style="fill:#455a64"></path><path d="M320.19,145.5a7.13,7.13,0,0,1-1,1.05c-.68.64-1.65,1.59-2.84,2.77a121.3,121.3,0,0,0-16.51,20.28c-.91,1.4-1.64,2.55-2.13,3.35a7.71,7.71,0,0,1-.82,1.21,8.19,8.19,0,0,1,.64-1.31c.44-.83,1.12-2,2-3.45a100.06,100.06,0,0,1,16.56-20.35c1.23-1.15,2.24-2.05,3-2.65A7.5,7.5,0,0,1,320.19,145.5Z" style="fill:#455a64"></path><path d="M383.21,218.55c-.1.34,21.45-2.73,21.45-2.73s10.16,1.63,11.09,1.58,4.66.39,5.54-.6c0,0,3.38.57,4.25-1.11a9.78,9.78,0,0,0,1-2.25s1.78-.28,2.46-2.9,1.86-7.49.73-9.07a16.13,16.13,0,0,0-2.23-2.54s5.9-4.59,5.6-5.65-.63-2.75-2.9-2.38a14.82,14.82,0,0,0-6.21,3.22c-.83.86-5.42,2.42-8.45,2.8s-7.34,3.37-9.21,5.62L404,204.42l-16.85.59Z" style="fill:#455a64"></path><path d="M417.09,211.74c-.1,0-.37-1.48-1.22-3.74a8.56,8.56,0,0,0-2.32-3.44,5.34,5.34,0,0,0-2.1-1.16,3.71,3.71,0,0,0-2.5.12,2.59,2.59,0,0,0-1.29,1.12,2.24,2.24,0,0,0-.24,1.59,1.61,1.61,0,0,0,2.25,1.11l.23-.15.1.26.84,2.32,0,.1-.06.08a4.09,4.09,0,0,0-.88,2.59c0,.67.13,1,.09,1a2.06,2.06,0,0,1-.29-1,4.1,4.1,0,0,1,.79-2.83l0,.18-.91-2.3.32.11a2.06,2.06,0,0,1-3-1.36,2.8,2.8,0,0,1,.27-2,3.13,3.13,0,0,1,1.54-1.35,4.29,4.29,0,0,1,2.84-.14,6,6,0,0,1,2.29,1.29,8.68,8.68,0,0,1,2.34,3.68,17.75,17.75,0,0,1,.74,2.81A3.67,3.67,0,0,1,417.09,211.74Z" style="fill:#263238"></path><path d="M422.27,212.07a14.31,14.31,0,0,1-.7-2.7c-.19-.89-.39-1.88-.61-3a8.45,8.45,0,0,0-1.19-3.34,4,4,0,0,0-3-1.44,8.44,8.44,0,0,0-2.91,0,2.27,2.27,0,0,0-1.44,1.17,4.08,4.08,0,0,0-.21.69s-.13-.28,0-.77a2.43,2.43,0,0,1,1.52-1.44,8,8,0,0,1,3.07-.17,6.44,6.44,0,0,1,1.81.38,3.57,3.57,0,0,1,1.61,1.23,8.41,8.41,0,0,1,1.24,3.56c.18,1.08.35,2.07.5,3A15.41,15.41,0,0,1,422.27,212.07Z" style="fill:#263238"></path><path d="M414.71,201.57a1.54,1.54,0,0,1-.16-.92,3.31,3.31,0,0,1,1.15-2.26,4.45,4.45,0,0,1,3.65-.87,7,7,0,0,1,4,2.33,10.52,10.52,0,0,1,2.22,4,18.43,18.43,0,0,1,.68,3.66c.09,1.06.12,1.91.12,2.5a3.4,3.4,0,0,1,0,.92,31.9,31.9,0,0,1-.45-3.37c-.29-2-.8-5-2.91-7.38a6.68,6.68,0,0,0-3.67-2.2,4.15,4.15,0,0,0-3.34.67,3.29,3.29,0,0,0-1.18,2C414.67,201.24,414.76,201.56,414.71,201.57Z" style="fill:#263238"></path><path d="M428,199.57c-.06.05-.42-.28-1-.77a8.18,8.18,0,0,0-2.49-1.53,4.12,4.12,0,0,0-2.8,0c-.69.29-1,.67-1.07.61s.18-.52.91-.94a4,4,0,0,1,3.12-.21,6.53,6.53,0,0,1,2.58,1.75C427.74,199.11,428,199.52,428,199.57Z" style="fill:#263238"></path><path d="M427.89,264.92c-.71-1.29-1.72-2.38-2.51-3.62a6,6,0,0,1-1.14-4.17c.36-1.95,2.21-3.62,1.2-5.67a3.24,3.24,0,0,0-2.81-1.73c-4.11-.19-7.23,3.11-9,6.68a24.82,24.82,0,0,0-2.45,7.5,12.34,12.34,0,0,0,5.62,12.4,9.41,9.41,0,0,0,2.49,1,7.9,7.9,0,0,0,8.24-3.31A9,9,0,0,0,427.89,264.92Z" style="fill:#FF725E"></path><g style="opacity:0.4"><path d="M422.45,262.64c-.57-1.15-1.55-2.45-2.89-1.87a2.14,2.14,0,0,0-.85.7,10.63,10.63,0,0,0-2.25,7.42c0,.21.06.43.1.64a3.77,3.77,0,0,0,7.45-.34v-.07A12.3,12.3,0,0,0,422.45,262.64Z" style="fill:#fff"></path></g><rect x="403.06" y="239.01" width="35.77" height="5.41" rx="2.12" style="fill:#263238"></rect><rect x="403.06" y="286.13" width="35.77" height="5.41" rx="2.12" style="fill:#263238"></rect><path d="M406.82,288.81s0-.29,0-.84,0-1.39,0-2.44c0-2.17,0-5.3-.06-9.29,0-8-.06-19.48-.1-33.27v-.81l.41.7c7.69,13.12,16.89,28.81,26.75,45.65l.1.16-.49.14c0-16.65,0-32.33,0-45.84l.43.11c-7.8,13.65-14.34,25.09-18.95,33.13l-5.37,9.32c-.62,1.05-1.1,1.87-1.43,2.45l-.38.62a.87.87,0,0,1-.14.21,1.43,1.43,0,0,1,.11-.23l.34-.64c.33-.58.78-1.41,1.38-2.48,1.22-2.19,3-5.36,5.26-9.38l18.78-33.22.43-.76V243c0,13.51,0,29.19,0,45.84v1l-.48-.83-.1-.17-26.68-45.69L407,243c0,13.79-.07,25.24-.09,33.27,0,4-.05,7.12-.06,9.29l0,2.44C406.85,288.52,406.82,288.81,406.82,288.81Z" style="fill:#263238"></path><path d="M408.44,240.26c.2-.31,5.33-13.91,5.33-13.91h14.15L433.45,241Z" style="fill:#263238"></path><path d="M428.85,200.37s.07,0,.2.09a5.51,5.51,0,0,1,.57.34,17.15,17.15,0,0,1,2,1.58,16.08,16.08,0,0,1,4.4,8.1,16.71,16.71,0,0,1,.07,6.44,16.33,16.33,0,0,1-3,6.75,16.12,16.12,0,0,1-6.38,5.07,15.66,15.66,0,0,1-8.66,1.09,18.15,18.15,0,0,1-2.21-.5,14.9,14.9,0,0,1-2.07-.83,15.39,15.39,0,0,1-3.63-2.38,17.1,17.1,0,0,1-2.77-3.15,16.49,16.49,0,0,1-.71-17.06,15.79,15.79,0,0,1,6.62-6.41,12,12,0,0,1,3.19-1.16,29.75,29.75,0,0,0-3.1,1.34A16.07,16.07,0,0,0,406,219.21a15.48,15.48,0,0,0,4.46,6.52,15.28,15.28,0,0,0,16,2.55,15.89,15.89,0,0,0,9.13-11.44,16.36,16.36,0,0,0,0-6.28,16.16,16.16,0,0,0-4.18-8,22.32,22.32,0,0,0-1.89-1.65C429.1,200.53,428.84,200.39,428.85,200.37Z" style="fill:#263238"></path><path d="M436.35,239c0,.14-6.7.26-15,.26s-14.95-.12-14.95-.26,6.69-.26,14.95-.26S436.35,238.86,436.35,239Z" style="fill:#455a64"></path><path d="M398.1,276.14a3.19,3.19,0,0,1-.44-.84,21.35,21.35,0,0,1-.87-2.41,26.93,26.93,0,0,1,.5-16.65,19.07,19.07,0,0,1,1-2.35,3.23,3.23,0,0,1,.48-.81c.08,0-.5,1.24-1.15,3.28a29.84,29.84,0,0,0-.49,16.44C397.68,274.87,398.18,276.1,398.1,276.14Z" style="fill:#FF725E"></path><path d="M387.28,281.77a7.38,7.38,0,0,1-.69-1.35,30.68,30.68,0,0,1-1.41-3.88,33.94,33.94,0,0,1,3.24-26.43,32.36,32.36,0,0,1,2.31-3.43,7.76,7.76,0,0,1,1-1.13,8.79,8.79,0,0,1-.83,1.25,40.67,40.67,0,0,0-2.16,3.49,35.45,35.45,0,0,0-3.2,26.15,38.25,38.25,0,0,0,1.24,3.91A8.85,8.85,0,0,1,387.28,281.77Z" style="fill:#FF725E"></path><path d="M444.83,270.63c-.09,0,.24-1,.5-2.73A21.81,21.81,0,0,0,443.4,255c-.75-1.54-1.36-2.41-1.29-2.46s.21.18.5.56a13.14,13.14,0,0,1,1.12,1.73,19.38,19.38,0,0,1,2,13.19,12.73,12.73,0,0,1-.55,2A2.28,2.28,0,0,1,444.83,270.63Z" style="fill:#FF725E"></path><path d="M454.49,278.89a6.78,6.78,0,0,1,.28-1.35c.22-.86.53-2.11.88-3.65a38.84,38.84,0,0,0,1-12.23A20.11,20.11,0,0,0,452,250.52a18.45,18.45,0,0,0-3.91-3.24s.13,0,.34.12a7,7,0,0,1,.91.48,13.16,13.16,0,0,1,2.94,2.39,19.73,19.73,0,0,1,4.87,11.34A35.87,35.87,0,0,1,456,274c-.39,1.54-.76,2.78-1,3.62A7.76,7.76,0,0,1,454.49,278.89Z" style="fill:#FF725E"></path><path d="M100.93,202.37c.1.33-22-2.75-22-2.75s-10.43,1.64-11.37,1.59-4.78.4-5.68-.6c0,0-3.47.57-4.36-1.12a9.06,9.06,0,0,1-1-2.26S54.72,197,54,194.32s-1.91-7.52-.75-9.11a15.79,15.79,0,0,1,2.28-2.55S49.51,178,49.82,177s.64-2.76,3-2.39a15.2,15.2,0,0,1,6.37,3.24c.85.86,5.56,2.43,8.66,2.81s7.53,3.39,9.44,5.64l2.38,1.89,17.28.6Z" style="fill:#455a64"></path><path d="M66.2,195.53a3.55,3.55,0,0,1,.15-1.07,17.91,17.91,0,0,1,.77-2.85,8.66,8.66,0,0,1,2.41-3.69,5.92,5.92,0,0,1,2.33-1.27,4.43,4.43,0,0,1,2.87.12,3.17,3.17,0,0,1,1.59,1.36,2.78,2.78,0,0,1,.29,2,2.13,2.13,0,0,1-3,1.36l.32-.11q-.49,1.24-.93,2.31l0-.18a4.09,4.09,0,0,1,.82,2.83,2.13,2.13,0,0,1-.3,1s.09-.37.1-1.05a4.09,4.09,0,0,0-.9-2.59l-.07-.08,0-.1c.26-.72.55-1.5.86-2.34l.09-.25.23.14a1.66,1.66,0,0,0,2.32-1.1,2.22,2.22,0,0,0-.25-1.62,2.66,2.66,0,0,0-1.34-1.12,3.93,3.93,0,0,0-2.53-.12,5.69,5.69,0,0,0-2.16,1.15,8.68,8.68,0,0,0-2.38,3.45,28.27,28.27,0,0,0-.92,2.76A4.94,4.94,0,0,1,66.2,195.53Z" style="fill:#263238"></path><path d="M60.9,195.86a14.26,14.26,0,0,1,.35-2.8c.15-.92.33-1.92.52-3a8.09,8.09,0,0,1,1.3-3.6,3.75,3.75,0,0,1,1.67-1.19,6.89,6.89,0,0,1,1.83-.36,8,8,0,0,1,3.11.17,2.45,2.45,0,0,1,1.55,1.44c.16.5,0,.79,0,.78a7.14,7.14,0,0,0-.22-.7,2.34,2.34,0,0,0-1.47-1.17,8.73,8.73,0,0,0-3,0,4.21,4.21,0,0,0-3.13,1.4,8,8,0,0,0-1.24,3.36c-.23,1.08-.44,2.08-.63,3A16.06,16.06,0,0,1,60.9,195.86Z" style="fill:#263238"></path><path d="M68.64,185.31s0-.34,0-.91a3.28,3.28,0,0,0-1.22-2,4.3,4.3,0,0,0-3.38-.67,6.88,6.88,0,0,0-3.76,2.17c-2.18,2.35-2.72,5.38-3,7.43s-.37,3.41-.45,3.41a2.82,2.82,0,0,1-.05-.93c0-.6,0-1.46.13-2.53a18.53,18.53,0,0,1,.72-3.7,10.58,10.58,0,0,1,2.29-4,7.3,7.3,0,0,1,4-2.29,4.67,4.67,0,0,1,3.71.86,3.31,3.31,0,0,1,1.18,2.28A1.5,1.5,0,0,1,68.64,185.31Z" style="fill:#263238"></path><path d="M55.07,183.3c0-.05.22-.46.78-1.05a6.62,6.62,0,0,1,2.64-1.75,4.12,4.12,0,0,1,3.19.21c.75.41,1,.92.93.94s-.39-.32-1.09-.61a4.29,4.29,0,0,0-2.86,0,8.24,8.24,0,0,0-2.56,1.53C55.5,183,55.13,183.35,55.07,183.3Z" style="fill:#263238"></path><path d="M79.06,179.08a13,13,0,0,1,2,1.62c1.19,1,2.84,2.49,4.62,4.13S89,188,90.09,189.18a10,10,0,0,1,1.61,2,18.31,18.31,0,0,1-1.87-1.75c-1.13-1.11-2.74-2.59-4.51-4.23s-3.39-3.12-4.52-4.24A11.58,11.58,0,0,1,79.06,179.08Z" style="fill:#263238"></path><path d="M80.1,185.59c.08-.16,2.78,1.26,5.94,3.27l4,2.57a9.22,9.22,0,0,1,1.63,1.13c-.08.16-2.79-1.26-5.94-3.26l-4-2.57A8.59,8.59,0,0,1,80.1,185.59Z" style="fill:#263238"></path><path d="M79.43,194.7a30.31,30.31,0,0,1,4.61.79,31.72,31.72,0,0,1,4.58,1,15.71,15.71,0,0,1-4.68-.49A16.08,16.08,0,0,1,79.43,194.7Z" style="fill:#263238"></path><path d="M82.39,197.78a20.79,20.79,0,0,1,3.48-.17,20.91,20.91,0,0,1,3.49,0,8.48,8.48,0,0,1-3.48.48A8.56,8.56,0,0,1,82.39,197.78Z" style="fill:#263238"></path><path d="M76.2,205.22a34,34,0,0,1,6-3.37,33.26,33.26,0,0,1,6.4-2.59c0,.13-2.75,1.4-6.18,3.05S76.27,205.35,76.2,205.22Z" style="fill:#263238"></path><path d="M82.85,205.89c-.08-.12.72-.79,1.79-1.51a5.43,5.43,0,0,1,2.08-1.07c.08.12-.72.79-1.79,1.51A5.43,5.43,0,0,1,82.85,205.89Z" style="fill:#263238"></path><path d="M244.58,316.41c2.15,1.93,8.19,166.93,8.19,166.93h9.11V392.76l11.18-16.64-5.14-7.06-9.1,9-1.71-61.63Z" style="fill:#263238"></path><path d="M200.25,177.2a16.74,16.74,0,0,1-2.17-2.45,67.17,67.17,0,0,1-4.52-6.47,69.14,69.14,0,0,1-3.75-6.94,16,16,0,0,1-1.21-3,26.14,26.14,0,0,1,1.54,2.87c.93,1.79,2.26,4.23,3.86,6.84s3.2,4.89,4.38,6.52A25.54,25.54,0,0,1,200.25,177.2Z" style="fill:#455a64"></path><path d="M202,175.44a14.91,14.91,0,0,1-1.07-2.92,72.36,72.36,0,0,1-2.84-14.7,15.13,15.13,0,0,1-.1-3.11,21.59,21.59,0,0,1,.47,3.07c.25,1.9.63,4.51,1.18,7.37s1.17,5.42,1.65,7.27A24.14,24.14,0,0,1,202,175.44Z" style="fill:#455a64"></path><path d="M208,175.78a39.46,39.46,0,0,1-1.27-3.81c-.71-2.08-1.5-3.69-1.37-3.76a9.82,9.82,0,0,1,1.87,3.59A10.13,10.13,0,0,1,208,175.78Z" style="fill:#455a64"></path><path d="M196.07,268.33l-.1-.05-.3-.18c-.26-.15-.64-.4-1.15-.68A27.4,27.4,0,0,0,182.27,264c-.75-.05-1.52,0-2.31,0s-1.61.1-2.44.23a26.64,26.64,0,0,0-5.09,1.22l-.2.08,0-.22a22.13,22.13,0,0,0-.48-8.74,22.83,22.83,0,0,0-4.27-8.56,18.67,18.67,0,0,0-4.89-4.31,22,22,0,0,0-5.8-2.3,52.46,52.46,0,0,0-11.23-1.19h-.21l.1-.17a41,41,0,0,0,4.73-12.89,31,31,0,0,0,.42-3.82c0-.44,0-.78,0-1s0-.35,0-.35,0,.12,0,.35,0,.57,0,1a28.51,28.51,0,0,1-.35,3.84,40.4,40.4,0,0,1-4.65,13l-.11-.18a53.19,53.19,0,0,1,11.3,1.17,22,22,0,0,1,5.88,2.32,19,19,0,0,1,5,4.38,22.86,22.86,0,0,1,4.31,8.67,22.31,22.31,0,0,1,.47,8.85l-.18-.15a26.58,26.58,0,0,1,5.15-1.21c.84-.13,1.66-.17,2.46-.23s1.57,0,2.33,0a26.72,26.72,0,0,1,7.67,1.47,26,26,0,0,1,4.61,2.11c.51.3.88.56,1.14.73l.28.19C196.05,268.3,196.08,268.33,196.07,268.33Z" style="fill:#455a64"></path><path d="M201.94,234.2a3.3,3.3,0,0,1-.32.39l-1,1.08c-.85.93-2.09,2.27-3.63,3.92-3.09,3.29-7.4,7.8-12.18,12.75s-9.1,9.43-12.24,12.7l-3.71,3.85-1,1.05a2.32,2.32,0,0,1-.37.34,4.64,4.64,0,0,1,.33-.39l1-1.08c.85-.93,2.09-2.27,3.63-3.91,3.09-3.3,7.4-7.8,12.19-12.76l12.24-12.7,3.7-3.85,1-1A2.76,2.76,0,0,1,201.94,234.2Z" style="fill:#455a64"></path><path d="M202.16,233.8l-.16,0-.47.06-1.8.21-6.63.76-21.85,2.49c-8.54,1-16.27,1.83-21.87,2.41l-6.63.66-1.81.16-.47,0h-.16l.16,0,.47-.06,1.8-.21,6.62-.76,21.86-2.49c8.53-1,16.26-1.83,21.86-2.41l6.64-.66,1.8-.16.47,0C202.1,233.79,202.15,233.79,202.16,233.8Z" style="fill:#455a64"></path><path d="M197.68,258.49s-.42-.21-1.21-.53a18.83,18.83,0,0,0-3.54-1.06,28.85,28.85,0,0,0-5.66-.58,26.1,26.1,0,0,0-7.21.93l-.26.07.1-.25c1.41-3.58.47-8.29-2.25-11.88a15.82,15.82,0,0,0-3.16-3.12,17.86,17.86,0,0,0-3.65-2.14,23.74,23.74,0,0,0-7.49-1.73l-.26,0,.18-.18a9.76,9.76,0,0,0,2.46-5.16,14.72,14.72,0,0,0,0-4.46,18.5,18.5,0,0,0-.66-2.81c-.1-.32-.2-.56-.25-.72a.7.7,0,0,1-.07-.25l.11.24c.06.15.17.39.28.7a17.14,17.14,0,0,1,.73,2.81,14.59,14.59,0,0,1,.06,4.52,9.92,9.92,0,0,1-2.48,5.3l-.08-.21a23.85,23.85,0,0,1,7.58,1.72,17.77,17.77,0,0,1,3.72,2.17,16.37,16.37,0,0,1,3.22,3.17,14.88,14.88,0,0,1,2.72,6.07,11.13,11.13,0,0,1-.46,6.09L180,257a25.9,25.9,0,0,1,7.29-.89,27.18,27.18,0,0,1,5.69.64,18.18,18.18,0,0,1,3.54,1.14,6.4,6.4,0,0,1,.88.44A1.52,1.52,0,0,1,197.68,258.49Z" style="fill:#455a64"></path><path d="M199.33,247.63a11.8,11.8,0,0,0-2.55-1.17,9.26,9.26,0,0,0-3.14-.36,8.73,8.73,0,0,0-3.85,1.14l-.17.09,0-.19a13.5,13.5,0,0,0-9.2-10.72l-.19,0,.12-.15a12.07,12.07,0,0,0,2.58-5.8,11.88,11.88,0,0,0,.15-1.81,4.72,4.72,0,0,1,0-.65s0,.06,0,.17,0,.27,0,.48a11.84,11.84,0,0,1-2.62,7.77l-.06-.21a13.63,13.63,0,0,1,9.4,10.93l-.2-.1a8.84,8.84,0,0,1,4-1.12,9,9,0,0,1,3.2.43,8,8,0,0,1,1.9.88c.21.13.35.25.45.32Z" style="fill:#455a64"></path><path d="M201.59,239.26a3.12,3.12,0,0,0-1.16-.56,4.07,4.07,0,0,0-3.14.64l-.36.25.15-.42a2.12,2.12,0,0,0,0-1.12,7.14,7.14,0,0,0-.4-1.21,6.66,6.66,0,0,0-.81-1.32,1.78,1.78,0,0,0-1.09-.74l-.42,0,.35-.21a5.7,5.7,0,0,0,1.32-1,3,3,0,0,0,.68-1.08,9.28,9.28,0,0,0,.25-1.12.86.86,0,0,1,0,.31,3,3,0,0,1-.79,2,6,6,0,0,1-1.35,1.08l-.06-.25a2,2,0,0,1,1.3.82,6.69,6.69,0,0,1,1.28,2.66,2.36,2.36,0,0,1,0,1.29l-.21-.17a4.08,4.08,0,0,1,3.34-.57,2.34,2.34,0,0,1,.89.45C201.54,239.15,201.6,239.26,201.59,239.26Z" style="fill:#455a64"></path><path d="M408.82,191.72a66.22,66.22,0,0,1-4.65,5.13,66.89,66.89,0,0,1-4.79,5,36.28,36.28,0,0,1,4.41-5.35A35.33,35.33,0,0,1,408.82,191.72Z" style="fill:#263238"></path><path d="M407.78,198.24a38.69,38.69,0,0,1-7.94,4.12,38.69,38.69,0,0,1,7.94-4.12Z" style="fill:#263238"></path><path d="M408.45,207.34a18.44,18.44,0,0,1-7.67,1.5,20.65,20.65,0,0,1,3.82-.85A21.44,21.44,0,0,1,408.45,207.34Z" style="fill:#263238"></path><path d="M405.49,210.43a6.61,6.61,0,0,1-4.61-.09,7.82,7.82,0,0,1,2.31-.06A7.52,7.52,0,0,1,405.49,210.43Z" style="fill:#263238"></path><path d="M411.68,217.87a55.57,55.57,0,0,1-5.53-2.57,52.08,52.08,0,0,1-5.47-2.72,42.71,42.71,0,0,1,11,5.29Z" style="fill:#263238"></path><path d="M405,218.54c-.08.12-1-.36-2.08-1.08s-1.87-1.39-1.79-1.5a5.43,5.43,0,0,1,2.08,1.07C404.31,217.74,405.11,218.42,405,218.54Z" style="fill:#263238"></path><path d="M282.37,342c6-1.32,9.89-2.47,9.89-2.47L280.47,191.32l-65.17,2.35S202,314.56,220.3,337l-.59.08-1.2,20.49c-.08,1.34.16,3.11,1.48,3.35,1.08.2,1.93-.84,2.52-1.76l4.92-7.63c1-1.49,2.15-3.14,3.92-3.36,2.56-.31,4.38,2.6,4.6,5.17s-.42,5.25.42,7.68c.48,1.37,1.74,2.7,3.17,2.43a3.71,3.71,0,0,0,2.27-2.09c1.6-2.87,2.58-6.17,4.87-8.52s6.65-3.22,8.66-.63c1,1.25,1.12,2.91,1.56,4.42s1.47,3.1,3,3.22c2.08.15,3.3-2.24,4-4.22,1-2.85,2.47-6.08,5.42-6.72,3.34-.74,6.27,2.36,7.8,5.43s2.64,6.64,5.56,8.43c1.89-2.61,1.56-6.17,1.15-9.37Q283.1,347.7,282.37,342Z" style="fill:#455a64"></path><path d="M241.43,200.62c-.81-25.54-59.19-26.69-59.19-26.69l23.17,24.35L89.72,180.47l-8.4,26.39L200,233.08l.32,3.65L182.24,369.36c29.19,9.73,40.55-30,40.55-30S242.24,226.17,241.43,200.62Z" style="fill:#263238"></path><path d="M292.78,198,316,173.66s-58.38,1.15-59.19,26.69S275.4,339.09,275.4,339.09s11.36,39.73,40.55,30L298.21,232.81Z" style="fill:#263238"></path><path d="M266.7,204.26c0,.14-9.44-2.12-21-5s-20.9-5.41-20.87-5.55,9.44,2.11,21,5S266.73,204.12,266.7,204.26Z" style="fill:#fff"></path><path d="M270.69,193.67c.05.13-8.94,3.34-20.07,7.17s-20.19,6.81-20.24,6.68,8.94-3.35,20.07-7.18S270.64,193.53,270.69,193.67Z" style="fill:#fff"></path><polygon points="287.49 194.23 398.71 194.23 403.58 225.88 288.87 225.88 287.49 194.23" style="fill:#263238"></polygon><path d="M316,174.16a8.06,8.06,0,0,1-1.05,1.16L312,178.38c-2.48,2.58-5.84,6.22-9.71,10.09-1.93,1.94-3.89,3.66-5.43,5.44a14.78,14.78,0,0,0-3.14,5.29,9.45,9.45,0,0,0-.39,4.12c.15,1,.36,1.5.32,1.52a1.34,1.34,0,0,1-.19-.36,7.27,7.27,0,0,1-.33-1.12,9.35,9.35,0,0,1,.23-4.27,14.75,14.75,0,0,1,3.14-5.5c1.55-1.83,3.51-3.56,5.43-5.49,3.79-3.87,7.23-7.36,9.81-10,1.27-1.26,2.32-2.27,3.05-3A8.26,8.26,0,0,1,316,174.16Z" style="fill:#FF725E"></path><path d="M362.54,226l-3.11-12.38-25.05-.27c-.81,0-1.76,0-2.2.72a2.49,2.49,0,0,0,.09,2.22c1.27,3.45,2,6.19,3.31,9.64Z" style="fill:#455a64"></path><path d="M132.18,187c0-.43,2.48,17.36,2.48,17.36.11-.29,6.67-10.61,9.25-15.56Z" style="fill:#455a64"></path><path d="M195.28,273.59a4.79,4.79,0,0,1,.68.16l1.94.53c1.68.45,4.14,1,7.17,1.74,1.52.36,3.18.79,4.94,1.31a19.59,19.59,0,0,1,2.71,1,3.85,3.85,0,0,1,2.17,2.23,6.86,6.86,0,0,1-.18,3.25c-.23,1.06-.46,2.13-.69,3.23-.48,2.19-1,4.46-1.69,6.75A43.22,43.22,0,0,1,206.88,306a26.1,26.1,0,0,1-7.79,7.72,17.49,17.49,0,0,1-6.93,2.57,12.54,12.54,0,0,1-2,.12,4.19,4.19,0,0,1-.7,0,2.76,2.76,0,0,1,.7-.07,17,17,0,0,0,2-.22,18,18,0,0,0,6.77-2.68,26.24,26.24,0,0,0,7.58-7.67,43.74,43.74,0,0,0,5.35-12.16c.67-2.28,1.2-4.53,1.69-6.72.24-1.09.47-2.17.7-3.22a6.41,6.41,0,0,0,.21-3,3.38,3.38,0,0,0-1.91-2,20.83,20.83,0,0,0-2.63-1c-1.75-.54-3.4-1-4.9-1.37-3-.77-5.48-1.38-7.14-1.9-.84-.25-1.49-.46-1.92-.62A2.92,2.92,0,0,1,195.28,273.59Z" style="fill:#455a64"></path><path d="M262.55,285.89a9.58,9.58,0,0,1-.88,1.41c-.6.89-1.5,2.15-2.66,3.67a109.27,109.27,0,0,1-21.22,21c-1.53,1.15-2.8,2-3.69,2.62a9.91,9.91,0,0,1-1.42.88,9.69,9.69,0,0,1,1.3-1c.86-.64,2.09-1.57,3.59-2.75a127.35,127.35,0,0,0,21.15-21c1.19-1.49,2.14-2.71,2.78-3.56A10.39,10.39,0,0,1,262.55,285.89Z" style="fill:#263238"></path><path d="M311.77,337c-.14,0-3.5-24.61-7.5-55s-7.13-55.06-7-55.08,3.5,24.61,7.5,55S311.92,337,311.77,337Z" style="fill:#FF725E"></path><path d="M197.84,256.81a2.64,2.64,0,0,1,0,.64c0,.47-.07,1.07-.12,1.82-.11,1.57-.3,3.85-.57,6.66-.54,5.63-1.43,13.38-2.7,21.91s-2.68,16.21-3.8,21.75c-.56,2.76-1,5-1.39,6.54q-.27,1.08-.42,1.77a6,6,0,0,1-.18.61,2.92,2.92,0,0,1,.07-.63c.09-.47.19-1.06.33-1.79.3-1.62.72-3.85,1.23-6.57,1-5.55,2.38-13.24,3.65-21.76s2.21-16.26,2.85-21.87c.3-2.75.55-5,.73-6.64.09-.74.16-1.34.21-1.81A4.92,4.92,0,0,1,197.84,256.81Z" style="fill:#FF725E"></path><path d="M213.94,221.24a2.77,2.77,0,0,1-.08-.59c0-.45-.08-1-.14-1.71a62.23,62.23,0,0,0-.73-6.24,23.83,23.83,0,0,0-3.29-8.6,37.08,37.08,0,0,0-3.32-4.37c-1.26-1.42-2.65-2.84-4-4.31-5.64-5.84-10.78-11.11-14.4-15-1.81-2-3.25-3.55-4.23-4.68-.49-.56-.85-1-1.1-1.31a3.24,3.24,0,0,1-.36-.48s.16.13.44.41l1.17,1.24,4.35,4.57,14.51,14.91c1.4,1.47,2.78,2.89,4.06,4.34a36.71,36.71,0,0,1,3.33,4.44,23.49,23.49,0,0,1,3.25,8.79,47.78,47.78,0,0,1,.57,6.3c0,.74,0,1.32,0,1.71A2.15,2.15,0,0,1,213.94,221.24Z" style="fill:#FF725E"></path></g><g id="freepik--Floor--inject-140"><path d="M447.17,483.34c0,.14-88.28.26-197.16.26s-197.18-.12-197.18-.26,88.26-.26,197.18-.26S447.17,483.2,447.17,483.34Z" style="fill:#263238"></path></g></svg>